<svg width="114" height="26" viewBox="0 0 114 26" fill="none" xmlns="http://www.w3.org/2000/svg">
<path d="M11.7075 17.8066C11.356 18.0762 11.0044 18.3047 10.6528 18.4922C10.313 18.6914 10.0083 18.791 9.73877 18.791H9.66846C9.41064 18.7793 9.15869 18.7031 8.9126 18.5625C8.67822 18.4336 8.46729 18.2695 8.27979 18.0703C8.09229 17.8711 7.93994 17.6484 7.82275 17.4023C7.70557 17.1445 7.64697 16.8926 7.64697 16.6465V16.5586C7.67041 16.3594 7.75244 15.9492 7.89307 15.3281C7.96338 15.0469 8.03955 14.7305 8.12158 14.3789C8.21533 14.0273 8.31494 13.6523 8.42041 13.2539C8.06885 13.2539 7.71143 13.2363 7.34814 13.2012C6.98486 13.166 6.63916 13.1074 6.31104 13.0254C6.229 13.0137 6.14697 13.0078 6.06494 13.0078C5.99463 12.9961 5.91846 12.9902 5.83643 12.9902H5.76611C5.35596 13.6113 4.9165 14.1914 4.44775 14.7305C3.979 15.2578 3.51611 15.7266 3.05908 16.1367C2.61377 16.5352 2.18604 16.8633 1.77588 17.1211C1.36572 17.3789 1.02002 17.5371 0.73877 17.5957L0.105957 16.4531C0.27002 16.4414 0.486816 16.3477 0.756348 16.1719C1.02588 15.9961 1.32471 15.7734 1.65283 15.5039C1.98096 15.2344 2.31494 14.9297 2.65479 14.5898C3.00635 14.25 3.34033 13.916 3.65674 13.5879C3.6333 13.6113 3.604 13.6348 3.56885 13.6582C3.54541 13.6699 3.50439 13.6875 3.4458 13.7109L3.18213 12.6035C3.4165 12.4746 3.69775 12.3633 4.02588 12.2695C4.354 12.1641 4.69385 12.0703 5.04541 11.9883C5.05713 11.9766 5.06299 11.9648 5.06299 11.9531C5.07471 11.9414 5.08643 11.9297 5.09814 11.918C5.21533 11.7188 5.36768 11.4082 5.55518 10.9863C5.71924 10.623 5.93018 10.1309 6.18799 9.50977C6.4458 8.87695 6.76221 8.05664 7.13721 7.04883L8.15674 7.33008C8.15674 7.4707 8.1333 7.63477 8.08643 7.82227C8.03955 8.00977 7.98096 8.21484 7.91064 8.4375C7.85205 8.64844 7.77588 8.87109 7.68213 9.10547C7.6001 9.32812 7.51221 9.55078 7.41846 9.77344C7.20752 10.2891 6.96143 10.834 6.68018 11.4082C6.64502 11.4668 6.60986 11.5371 6.57471 11.6191C6.53955 11.6895 6.50439 11.7539 6.46924 11.8125H6.60986C6.68018 11.8125 6.75049 11.8125 6.8208 11.8125C6.89111 11.8125 6.95557 11.8184 7.01416 11.8301C7.10791 11.8418 7.21338 11.8535 7.33057 11.8652C7.44775 11.8652 7.5708 11.8652 7.69971 11.8652C8.09814 11.8652 8.45557 11.8477 8.77197 11.8125C8.88916 11.332 9.00049 10.8516 9.10596 10.3711C9.22314 9.89062 9.32275 9.43945 9.40479 9.01758C9.48682 8.5957 9.55127 8.20898 9.59814 7.85742C9.64502 7.49414 9.66846 7.19531 9.66846 6.96094C9.66846 6.73828 9.64502 6.58594 9.59814 6.50391C9.48096 6.28125 9.34033 6.12305 9.17627 6.0293C9.02393 5.93555 8.85986 5.88867 8.68408 5.88867C8.44971 5.88867 8.20947 5.95312 7.96338 6.08203C7.729 6.19922 7.48877 6.36914 7.24268 6.5918C7.06689 6.75586 6.87939 6.92578 6.68018 7.10156C6.51611 7.25391 6.32275 7.42969 6.1001 7.62891C5.87744 7.82813 5.64893 8.0332 5.41455 8.24414L4.35986 6.87305C4.71143 6.5332 5.08643 6.2168 5.48486 5.92383C5.89502 5.63086 6.29932 5.37891 6.69775 5.16797C7.09619 4.95703 7.48291 4.79297 7.85791 4.67578C8.24463 4.54687 8.59619 4.48242 8.9126 4.48242H9.00049C9.29346 4.49414 9.56299 4.57031 9.80908 4.71094C10.0669 4.83984 10.2837 5.02148 10.4595 5.25586C10.647 5.49023 10.7935 5.76562 10.8989 6.08203C11.0044 6.38672 11.0571 6.7207 11.0571 7.08398C11.0571 7.17773 11.0571 7.25977 11.0571 7.33008C11.0571 7.40039 11.0513 7.47656 11.0396 7.55859C11.0161 7.76953 10.9634 8.04492 10.8813 8.38477C10.811 8.72461 10.7231 9.11133 10.6177 9.54492C10.5122 9.9668 10.4009 10.418 10.2837 10.8984C10.1665 11.3789 10.0552 11.8594 9.94971 12.3398L10.2134 13.043C10.1196 13.0664 10.0376 13.0898 9.96729 13.1133C9.89697 13.1367 9.8208 13.1543 9.73877 13.166C9.59814 13.8223 9.4751 14.4316 9.36963 14.9941C9.27588 15.5449 9.229 15.9902 9.229 16.3301C9.229 16.541 9.25244 16.6875 9.29932 16.7695C9.45166 17.0391 9.68604 17.1738 10.0024 17.1738C10.2954 17.1738 10.6118 17.0742 10.9517 16.875C11.2915 16.6641 11.5845 16.418 11.8306 16.1367C11.8306 16.125 11.8657 16.0723 11.936 15.9785C12.0181 15.8848 12.1001 15.7793 12.1821 15.6621C12.2759 15.5332 12.3579 15.4102 12.4282 15.293C12.5103 15.1641 12.5571 15.0645 12.5688 14.9941L13.7642 16.084C13.4829 16.3184 13.1606 16.5938 12.7974 16.9102C12.4458 17.2266 12.0825 17.5254 11.7075 17.8066ZM19.4946 11.127C19.5181 11.0566 19.5415 10.9395 19.5649 10.7754C19.6001 10.5996 19.6177 10.4473 19.6177 10.3184C19.6177 10.2598 19.6118 10.207 19.6001 10.1602C19.5884 10.1016 19.5649 10.0723 19.5298 10.0723C19.4946 10.0723 19.4419 10.1074 19.3716 10.1777C19.3364 10.2012 19.3071 10.2363 19.2837 10.2832C19.2368 10.377 19.2134 10.4707 19.2134 10.5645C19.2134 10.6465 19.231 10.7344 19.2661 10.8281C19.313 10.9219 19.3892 11.0215 19.4946 11.127ZM17.5786 5.32617C17.4146 5.53711 17.2446 5.82422 17.0688 6.1875C16.9048 6.55078 16.7466 6.92578 16.5942 7.3125C16.4536 7.69922 16.3364 8.07422 16.2427 8.4375C16.1489 8.78906 16.0962 9.07617 16.0845 9.29883C16.1782 9.1582 16.2954 8.91211 16.436 8.56055C16.5767 8.20898 16.7231 7.82813 16.8755 7.41797C17.0278 7.00781 17.1685 6.60938 17.2974 6.22266C17.4263 5.83594 17.52 5.53711 17.5786 5.32617ZM24.0298 12.4805C23.6079 12.7852 23.1802 13.043 22.7466 13.2539C22.3247 13.4648 21.8384 13.5703 21.2876 13.5703C21.1938 13.5703 21.1235 13.5645 21.0767 13.5527C20.7837 13.5293 20.4731 13.4473 20.145 13.3066C19.9106 13.7871 19.6177 14.3379 19.2661 14.959C18.9263 15.5684 18.563 16.1484 18.1763 16.6992C17.8013 17.2383 17.4146 17.6953 17.0161 18.0703C16.6294 18.457 16.272 18.6621 15.9438 18.6855H15.7856C15.3989 18.6855 15.0356 18.5977 14.6958 18.4219C14.3677 18.2461 14.0806 18.0176 13.8345 17.7363C13.5884 17.4551 13.3892 17.1387 13.2368 16.7871C13.0962 16.4238 13.0259 16.0547 13.0259 15.6797C13.0259 15.6211 13.0259 15.5684 13.0259 15.5215C13.0259 15.4629 13.0376 15.4043 13.061 15.3457C13.0962 15.0762 13.1841 14.6367 13.3247 14.0273C13.4771 13.418 13.6587 12.7324 13.8696 11.9707C14.0806 11.209 14.3149 10.418 14.5728 9.59766C14.8306 8.76562 15.0884 7.99219 15.3462 7.27734C15.604 6.5625 15.8501 5.95312 16.0845 5.44922C16.3188 4.94531 16.5181 4.63477 16.6821 4.51758C16.7993 4.43555 16.9106 4.38281 17.0161 4.35938C17.1333 4.32422 17.2505 4.30664 17.3677 4.30664C17.5786 4.30664 17.7896 4.35352 18.0005 4.44727C18.2114 4.54102 18.3989 4.6582 18.563 4.79883C18.7271 4.93945 18.8618 5.0918 18.9673 5.25586C19.0728 5.4082 19.1255 5.54883 19.1255 5.67773C19.1255 5.7832 19.061 6 18.9321 6.32812C18.8149 6.65625 18.6509 7.04297 18.4399 7.48828C18.229 7.92187 17.9888 8.39062 17.7192 8.89453C17.4497 9.39844 17.1685 9.88477 16.8755 10.3535C16.5942 10.8105 16.313 11.2266 16.0317 11.6016C15.7505 11.9766 15.4985 12.2461 15.2759 12.4102C15.1353 12.8906 15.0063 13.4531 14.8892 14.0977C14.772 14.7305 14.7134 15.3398 14.7134 15.9258C14.7134 16.3242 14.7485 16.6816 14.8188 16.998C14.8892 17.3145 15.0122 17.5664 15.188 17.7539C15.5513 17.5664 15.9204 17.2734 16.2954 16.875C16.6704 16.4648 17.0278 16.0078 17.3677 15.5039C17.7075 15 18.0122 14.4844 18.2817 13.957C18.563 13.4297 18.7915 12.9492 18.9673 12.5156C18.6978 12.2812 18.4751 12.0352 18.2993 11.7773C18.1353 11.5078 18.0532 11.2617 18.0532 11.0391V11.0039C18.0532 10.793 18.1177 10.582 18.2466 10.3711C18.3872 10.1484 18.5513 9.94922 18.7388 9.77344C18.938 9.59766 19.1489 9.45703 19.3716 9.35156C19.5942 9.23438 19.7935 9.17578 19.9692 9.17578C20.0864 9.17578 20.1743 9.19922 20.2329 9.24609C20.4438 9.35156 20.6021 9.58008 20.7075 9.93164C20.813 10.2715 20.8657 10.6289 20.8657 11.0039C20.8657 11.1914 20.854 11.3789 20.8306 11.5664C20.8071 11.7422 20.7661 11.9062 20.7075 12.0586C20.6841 12.1055 20.6548 12.1699 20.6196 12.252C20.5962 12.334 20.5552 12.4277 20.4966 12.5332C20.5435 12.5449 20.6021 12.5508 20.6724 12.5508C20.9067 12.5508 21.1704 12.5098 21.4634 12.4277C21.7681 12.3457 22.0728 12.2461 22.3774 12.1289C22.6938 12 22.9868 11.8652 23.2563 11.7246C23.5376 11.584 23.772 11.4492 23.9595 11.3203L24.0298 12.4805ZM24.7153 17.4551C24.7622 17.4668 24.8325 17.4727 24.9263 17.4727C25.2778 17.4727 25.5942 17.3789 25.8755 17.1914C26.1567 17.0039 26.4028 16.7695 26.6138 16.4883C26.8247 16.207 27.0005 15.9082 27.1411 15.5918C27.2935 15.2637 27.4048 14.9648 27.4751 14.6953C27.5337 14.543 27.5981 14.3027 27.6685 13.9746C27.7388 13.6348 27.8032 13.2715 27.8618 12.8848C27.6626 12.8145 27.4575 12.6973 27.2466 12.5332C27.0474 12.3574 26.8599 12.1582 26.6841 11.9355C26.5083 11.7129 26.3618 11.4727 26.2446 11.2148C26.1392 10.957 26.0864 10.7109 26.0864 10.4766C26.0864 10.3945 26.0923 10.3301 26.104 10.2832C25.8345 10.4473 25.5767 10.6406 25.3306 10.8633C25.0962 11.0859 24.8794 11.3262 24.6802 11.584C24.481 11.8301 24.311 12.0938 24.1704 12.375C24.0298 12.6445 23.9302 12.9082 23.8716 13.166C23.8013 13.4355 23.7368 13.7637 23.6782 14.1504C23.6196 14.5254 23.5903 14.9121 23.5903 15.3105C23.5903 15.5801 23.6079 15.8379 23.6431 16.084C23.6782 16.3301 23.7368 16.5527 23.8188 16.752C23.9126 16.9395 24.0298 17.0977 24.1704 17.2266C24.3228 17.3555 24.5044 17.4316 24.7153 17.4551ZM27.686 10.3359C27.5571 10.3359 27.4634 10.377 27.4048 10.459C27.3462 10.541 27.3169 10.6406 27.3169 10.7578C27.3169 10.957 27.3813 11.1621 27.5103 11.373C27.6392 11.5723 27.8091 11.7129 28.02 11.7949C28.0317 11.6895 28.0376 11.5898 28.0376 11.4961C28.0376 11.4023 28.0376 11.3086 28.0376 11.2148C28.0376 10.9453 28.0142 10.7344 27.9673 10.582C27.9204 10.418 27.8325 10.3359 27.7036 10.3359H27.686ZM33.3286 12.1113C32.7661 12.5684 32.2212 12.9023 31.6938 13.1133C31.1665 13.3242 30.7036 13.4297 30.3052 13.4297C30.0005 13.4297 29.6548 13.3652 29.2681 13.2363C29.1392 13.7871 28.981 14.3438 28.7935 14.9062C28.6177 15.4688 28.4185 15.9902 28.1958 16.4707C27.9849 16.9395 27.7563 17.3379 27.5103 17.666C27.2759 17.9941 27.0356 18.1992 26.7896 18.2812C26.52 18.3867 26.2271 18.4629 25.9106 18.5098C25.5942 18.5566 25.2778 18.5801 24.9614 18.5801C24.4341 18.5801 23.936 18.5039 23.4673 18.3516C23.0103 18.1992 22.6997 17.9531 22.5356 17.6133C22.4419 17.4141 22.3657 17.127 22.3071 16.752C22.2485 16.377 22.2192 15.9668 22.2192 15.5215C22.2192 15.1699 22.2368 14.8066 22.272 14.4316C22.3071 14.0449 22.354 13.6758 22.4126 13.3242C22.4829 12.9727 22.5649 12.6504 22.6587 12.3574C22.7642 12.0527 22.8813 11.8008 23.0103 11.6016C23.2095 11.2734 23.4614 10.9453 23.7661 10.6172C24.0708 10.2773 24.3989 9.97266 24.7505 9.70312C25.1138 9.43359 25.4888 9.21094 25.8755 9.03516C26.2622 8.85938 26.6431 8.77148 27.0181 8.77148H27.0708L27.1235 9.28125C27.311 9.21094 27.5103 9.17578 27.7212 9.17578C28.1548 9.17578 28.5356 9.31641 28.8638 9.59766C29.2036 9.86719 29.438 10.2129 29.5669 10.6348C29.5903 10.7285 29.6021 10.8867 29.6021 11.1094C29.6021 11.2734 29.5962 11.4434 29.5845 11.6191C29.5845 11.7949 29.5786 11.9297 29.5669 12.0234C29.6255 12.0469 29.6899 12.0645 29.7603 12.0762C29.8774 12.1113 30.0591 12.1289 30.3052 12.1289C30.4575 12.1289 30.645 12.1172 30.8677 12.0938C31.1021 12.0586 31.3481 12.0059 31.606 11.9355C31.8755 11.8535 32.1509 11.748 32.4321 11.6191C32.7134 11.4785 32.9829 11.2969 33.2407 11.0742L33.3286 12.1113ZM38.5493 10.4238C38.3267 10.5879 38.1919 10.7695 38.145 10.9688C38.1099 11.168 38.0513 11.3965 37.9692 11.6543C38.063 11.5254 38.1743 11.3555 38.3032 11.1445C38.4438 10.9336 38.5259 10.6934 38.5493 10.4238ZM41.2388 16.2422C40.2427 17.2734 39.2993 17.9004 38.4087 18.123C38.0923 18.2051 37.7993 18.2461 37.5298 18.2461C37.061 18.2461 36.7329 18.1289 36.5454 17.8945C36.3579 17.6484 36.2583 17.3555 36.2466 17.0156V16.8047C36.2466 16.6758 36.2466 16.5234 36.2466 16.3477C36.2466 16.1602 36.2524 15.9492 36.2642 15.7148C35.7603 16.3477 35.2798 16.8867 34.8228 17.332C34.3657 17.7656 34.0024 18.0117 33.7329 18.0703C33.5688 18.0938 33.4106 18.1113 33.2583 18.123C33.106 18.1465 32.9478 18.1582 32.7837 18.1582C32.5376 18.1582 32.3032 18.1348 32.0806 18.0879C31.8696 18.0527 31.6821 17.9883 31.5181 17.8945C31.354 17.7891 31.2251 17.6602 31.1313 17.5078C31.0376 17.3555 30.9907 17.1621 30.9907 16.9277V16.8574C30.9907 16.7988 31.0083 16.6465 31.0435 16.4004C31.0669 16.1426 31.1372 15.7441 31.2544 15.2051C31.3833 14.666 31.5767 13.9512 31.8345 13.0605C32.0923 12.1699 32.4497 11.0508 32.9067 9.70312L34.5591 9.79102C34.1489 10.7285 33.8149 11.5664 33.5571 12.3047C33.311 13.0312 33.1177 13.6699 32.9771 14.2207C32.8481 14.7598 32.7603 15.2168 32.7134 15.5918C32.6665 15.9668 32.6431 16.2715 32.6431 16.5059C32.6431 16.6348 32.6431 16.7402 32.6431 16.8223C32.6548 16.8926 32.6665 16.957 32.6782 17.0156C32.6899 17.0742 32.7017 17.1211 32.7134 17.1562C32.9829 17.0156 33.2817 16.8223 33.6099 16.5762C33.938 16.3184 34.2661 16.0312 34.5942 15.7148C34.9224 15.3984 35.2446 15.0645 35.561 14.7129C35.8774 14.3496 36.1646 13.9922 36.4224 13.6406C36.4575 13.2422 36.5044 12.8496 36.563 12.4629C36.6216 12.0762 36.6919 11.7188 36.7739 11.3906C36.856 11.0625 36.9438 10.7695 37.0376 10.5117C37.1313 10.2539 37.2427 10.0605 37.3716 9.93164C37.5825 9.73242 37.8345 9.63281 38.1274 9.63281C38.3032 9.63281 38.4731 9.66797 38.6372 9.73828C38.8013 9.79688 38.9478 9.87891 39.0767 9.98438C39.2056 10.0781 39.311 10.1895 39.3931 10.3184C39.4751 10.4473 39.5161 10.5762 39.5161 10.7051V10.7578C39.5044 10.8398 39.4517 10.9805 39.3579 11.1797C39.2642 11.3672 39.1294 11.6016 38.9536 11.8828C38.7896 12.1641 38.5962 12.4746 38.3735 12.8145C38.1626 13.1426 37.9282 13.4883 37.6704 13.8516C37.6118 14.1562 37.5649 14.4668 37.5298 14.7832C37.4946 15.0879 37.4771 15.3926 37.4771 15.6973C37.4771 16.0371 37.5063 16.3535 37.5649 16.6465C37.6235 16.9277 37.7173 17.168 37.8462 17.3672C38.1392 17.2383 38.4614 17.0449 38.813 16.7871C39.1646 16.5176 39.4985 16.248 39.8149 15.9785C40.1431 15.6973 40.4302 15.4453 40.6763 15.2227C40.9224 14.9883 41.0806 14.8418 41.1509 14.7832L41.2388 16.2422ZM42.8032 17.0332C42.8735 17.0684 42.9673 17.0859 43.0845 17.0859C43.3774 17.0859 43.7114 16.9805 44.0864 16.7695C44.4731 16.5586 44.8481 16.3125 45.2114 16.0312C45.5747 15.7383 45.9087 15.4453 46.2134 15.1523C46.5181 14.8477 46.7407 14.6133 46.8813 14.4492L47.479 15.5742C47.3618 15.7148 47.1274 15.9434 46.7759 16.2598C46.436 16.5762 46.061 16.8984 45.6509 17.2266C45.2407 17.543 44.8423 17.8242 44.4556 18.0703C44.0688 18.3281 43.7759 18.4629 43.5767 18.4746C43.5532 18.4746 43.5356 18.4746 43.5239 18.4746C43.5122 18.4863 43.4946 18.4922 43.4712 18.4922C43.2603 18.4922 43.0024 18.4453 42.6978 18.3516C42.4048 18.2695 42.1177 18.1523 41.8364 18C41.5552 17.8359 41.3091 17.6426 41.0981 17.4199C40.8872 17.1973 40.77 16.957 40.7466 16.6992V16.6289C40.7466 16.4414 40.7817 16.1367 40.8521 15.7148C40.9341 15.293 41.0396 14.8066 41.1685 14.2559C41.3091 13.6934 41.4614 13.0898 41.6255 12.4453C41.8013 11.7891 41.9829 11.1387 42.1704 10.4941C41.6079 10.5293 41.145 10.6113 40.7817 10.7402C40.4185 10.8574 40.1606 10.9277 40.0083 10.9512L39.8853 9.66797C40.3774 9.55078 40.8228 9.45703 41.2212 9.38672C41.6196 9.30469 42.0591 9.25781 42.5396 9.24609C42.7505 8.51953 42.9556 7.88086 43.1548 7.33008C43.354 6.76758 43.5181 6.36914 43.647 6.13477L45.2466 6.1875C45.1177 6.38672 44.9419 6.77344 44.7192 7.34766C44.4966 7.92187 44.2681 8.60156 44.0337 9.38672C44.4087 9.46875 44.7954 9.5625 45.1938 9.66797C45.5923 9.77344 45.9673 9.82617 46.3188 9.82617C46.5298 9.82617 46.7407 9.79102 46.9517 9.7207L47.145 10.9863C47.0864 10.998 47.022 11.0039 46.9517 11.0039C46.8931 11.0039 46.8286 11.0039 46.7583 11.0039C46.4185 11.0039 46.0142 10.9688 45.5454 10.8984C45.0767 10.8164 44.5786 10.7109 44.0513 10.582C43.9458 10.5703 43.8228 10.5527 43.6821 10.5293C43.5298 11.0566 43.3833 11.5957 43.2427 12.1465C43.1138 12.6855 42.9966 13.207 42.8911 13.7109C42.7856 14.2031 42.6978 14.666 42.6274 15.0996C42.5688 15.5332 42.5396 15.9023 42.5396 16.207C42.5396 16.4414 42.5571 16.6348 42.5923 16.7871C42.6392 16.9277 42.7095 17.0098 42.8032 17.0332ZM59.4673 10.4238C59.2446 10.5879 59.1099 10.7695 59.063 10.9688C59.0278 11.168 58.9692 11.3965 58.8872 11.6543C58.981 11.5254 59.0923 11.3555 59.2212 11.1445C59.3618 10.9336 59.4438 10.6934 59.4673 10.4238ZM62.1567 16.2422C61.1606 17.2734 60.2173 17.9004 59.3267 18.123C59.0103 18.2051 58.7173 18.2461 58.4478 18.2461C57.979 18.2461 57.6509 18.1289 57.4634 17.8945C57.2759 17.6484 57.1763 17.3555 57.1646 17.0156V16.8047C57.1646 16.6758 57.1646 16.5234 57.1646 16.3477C57.1646 16.1602 57.1704 15.9492 57.1821 15.7148C56.6782 16.3477 56.1978 16.8867 55.7407 17.332C55.2837 17.7656 54.9204 18.0117 54.6509 18.0703C54.4868 18.0938 54.3286 18.1113 54.1763 18.123C54.0239 18.1465 53.8657 18.1582 53.7017 18.1582C53.4556 18.1582 53.2212 18.1348 52.9985 18.0879C52.7876 18.0527 52.6001 17.9883 52.436 17.8945C52.272 17.7891 52.1431 17.6602 52.0493 17.5078C51.9556 17.3555 51.9087 17.1621 51.9087 16.9277V16.8574C51.9087 16.7988 51.9263 16.6465 51.9614 16.4004C51.9849 16.1426 52.0552 15.7441 52.1724 15.2051C52.3013 14.666 52.4946 13.9512 52.7524 13.0605C53.0103 12.1699 53.3677 11.0508 53.8247 9.70312L55.4771 9.79102C55.0669 10.7285 54.7329 11.5664 54.4751 12.3047C54.229 13.0312 54.0356 13.6699 53.895 14.2207C53.7661 14.7598 53.6782 15.2168 53.6313 15.5918C53.5845 15.9668 53.561 16.2715 53.561 16.5059C53.561 16.6348 53.561 16.7402 53.561 16.8223C53.5728 16.8926 53.5845 16.957 53.5962 17.0156C53.6079 17.0742 53.6196 17.1211 53.6313 17.1562C53.9009 17.0156 54.1997 16.8223 54.5278 16.5762C54.856 16.3184 55.1841 16.0312 55.5122 15.7148C55.8403 15.3984 56.1626 15.0645 56.479 14.7129C56.7954 14.3496 57.0825 13.9922 57.3403 13.6406C57.3755 13.2422 57.4224 12.8496 57.481 12.4629C57.5396 12.0762 57.6099 11.7188 57.6919 11.3906C57.7739 11.0625 57.8618 10.7695 57.9556 10.5117C58.0493 10.2539 58.1606 10.0605 58.2896 9.93164C58.5005 9.73242 58.7524 9.63281 59.0454 9.63281C59.2212 9.63281 59.3911 9.66797 59.5552 9.73828C59.7192 9.79688 59.8657 9.87891 59.9946 9.98438C60.1235 10.0781 60.229 10.1895 60.311 10.3184C60.3931 10.4473 60.4341 10.5762 60.4341 10.7051V10.7578C60.4224 10.8398 60.3696 10.9805 60.2759 11.1797C60.1821 11.3672 60.0474 11.6016 59.8716 11.8828C59.7075 12.1641 59.5142 12.4746 59.2915 12.8145C59.0806 13.1426 58.8462 13.4883 58.5884 13.8516C58.5298 14.1562 58.4829 14.4668 58.4478 14.7832C58.4126 15.0879 58.395 15.3926 58.395 15.6973C58.395 16.0371 58.4243 16.3535 58.4829 16.6465C58.5415 16.9277 58.6353 17.168 58.7642 17.3672C59.0571 17.2383 59.3794 17.0449 59.731 16.7871C60.0825 16.5176 60.4165 16.248 60.7329 15.9785C61.061 15.6973 61.3481 15.4453 61.5942 15.2227C61.8403 14.9883 61.9985 14.8418 62.0688 14.7832L62.1567 16.2422ZM64.5825 17.1562C64.7114 17.1562 64.8462 17.1387 64.9868 17.1035C65.0103 17.0918 65.0337 17.0801 65.0571 17.0684C65.0923 17.0566 65.1274 17.0449 65.1626 17.0332C65.2915 16.9746 65.4028 16.8691 65.4966 16.7168C65.6021 16.5527 65.6841 16.3711 65.7427 16.1719C65.813 15.9727 65.8599 15.7617 65.8833 15.5391C65.9185 15.3164 65.936 15.1055 65.936 14.9062C65.936 14.6836 65.9126 14.4844 65.8657 14.3086C65.8306 14.1211 65.772 13.9512 65.6899 13.7988C65.6196 13.6348 65.5376 13.4824 65.4438 13.3418C65.3618 13.1895 65.2798 13.0371 65.1978 12.8848C65.0923 12.6973 65.0161 12.5039 64.9692 12.3047C64.9224 12.1055 64.8872 11.9062 64.8638 11.707L62.2446 15.4512C62.4321 15.5332 62.6079 15.6621 62.772 15.8379C62.936 16.002 63.1001 16.1777 63.2642 16.3652C63.4399 16.541 63.6216 16.7051 63.8091 16.8574C63.9966 17.0098 64.2075 17.1094 64.4419 17.1562H64.5825ZM70.2075 16.207C70.1372 16.2422 69.9614 16.3359 69.6802 16.4883C69.3989 16.6289 69.0591 16.7988 68.6606 16.998C68.2739 17.1855 67.8521 17.3906 67.395 17.6133C66.938 17.8242 66.4985 18.0176 66.0767 18.1934C65.6548 18.3809 65.2739 18.5332 64.9341 18.6504C64.5942 18.7676 64.3481 18.8262 64.1958 18.8262H64.1431C63.9321 18.8027 63.6978 18.7148 63.4399 18.5625C63.1938 18.4219 62.9478 18.2402 62.7017 18.0176C62.4673 17.8066 62.2388 17.5723 62.0161 17.3145C61.8052 17.0449 61.6294 16.7871 61.4888 16.541L60.3286 18.4746L59.4497 17.666C59.5903 17.502 59.7954 17.2324 60.0649 16.8574C60.3228 16.4824 60.6157 16.0547 60.9438 15.5742C61.2603 15.082 61.5942 14.5664 61.9458 14.0273C62.2974 13.4766 62.6372 12.9434 62.9653 12.4277C63.3052 11.9121 63.6099 11.4375 63.8794 11.0039C64.1606 10.5703 64.3833 10.2246 64.5474 9.9668C64.6177 9.54492 64.729 9.1582 64.8813 8.80664C65.0454 8.44336 65.2388 8.22656 65.4614 8.15625H65.5493C65.6196 8.15625 65.6958 8.19141 65.7778 8.26172C65.8716 8.33203 65.9536 8.42578 66.0239 8.54297C66.106 8.64844 66.1704 8.76562 66.2173 8.89453C66.2759 9.01172 66.3052 9.12305 66.3052 9.22852C66.3052 9.28711 66.2993 9.33984 66.2876 9.38672C66.2173 9.5625 66.1353 9.7793 66.0415 10.0371C65.9478 10.2832 65.8716 10.5293 65.813 10.7754C65.7896 10.8457 65.7778 10.9102 65.7778 10.9688C65.7778 11.1445 65.8247 11.3262 65.9185 11.5137C66.0122 11.6895 66.1177 11.8652 66.2349 12.041C66.3638 12.2051 66.4868 12.3633 66.604 12.5156C66.7329 12.6562 66.8267 12.7793 66.8853 12.8848C67.0728 13.2012 67.2075 13.5352 67.2896 13.8867C67.3716 14.2266 67.4126 14.5547 67.4126 14.8711C67.4126 15.0703 67.395 15.2578 67.3599 15.4336C67.3364 15.6094 67.2954 15.7676 67.2368 15.9082C67.2368 15.9199 67.2134 15.9668 67.1665 16.0488C67.1313 16.1309 67.0903 16.2246 67.0435 16.3301C66.9966 16.4238 66.9497 16.5117 66.9028 16.5938C66.8677 16.6758 66.8501 16.7227 66.8501 16.7344C67.2485 16.5234 67.6294 16.3242 67.9927 16.1367C68.2974 15.9727 68.5962 15.8086 68.8892 15.6445C69.1938 15.4805 69.4165 15.3516 69.5571 15.2578L70.2075 16.207Z" fill="#195A00"/>
<line x1="80.0044" y1="17.5" x2="114.004" y2="17.5" stroke="#195A00"/>
</svg>
