<svg width="161" height="26" viewBox="0 0 161 26" fill="none" xmlns="http://www.w3.org/2000/svg">
<path d="M9.77148 8.20898C9.71289 8.25586 9.6543 8.33789 9.5957 8.45508C9.54883 8.57227 9.50195 8.70117 9.45508 8.8418C9.4082 8.98242 9.36719 9.12305 9.33203 9.26367C9.30859 9.4043 9.29688 9.52734 9.29688 9.63281V9.66797C9.42578 9.33984 9.53125 9.06445 9.61328 8.8418C9.69531 8.61914 9.74805 8.4082 9.77148 8.20898ZM18.1211 5.50195C17.957 5.53711 17.7578 5.64258 17.5234 5.81836C17.2891 5.99414 17.0312 6.19922 16.75 6.43359C16.3047 6.79687 15.8945 7.2832 15.5195 7.89258C15.1445 8.49023 14.7988 9.12305 14.4824 9.79102C14.166 10.459 13.8789 11.1211 13.6211 11.7773C13.3633 12.4336 13.1348 13.002 12.9355 13.4824C12.6543 14.127 12.3613 14.748 12.0566 15.3457C11.7637 15.9316 11.4766 16.4531 11.1953 16.9102C10.9258 17.3672 10.6797 17.7305 10.457 18C10.2344 18.2695 10.0586 18.4043 9.92969 18.4043C9.70703 18.3926 9.47852 18.3633 9.24414 18.3164C9.00977 18.2695 8.79297 18.1934 8.59375 18.0879C8.39453 17.9941 8.22461 17.8711 8.08398 17.7188C7.94336 17.5547 7.85547 17.3555 7.82031 17.1211C7.80859 17.0156 7.79688 16.8867 7.78516 16.7344C7.78516 16.5703 7.78516 16.4004 7.78516 16.2246C7.78516 15.9316 7.78516 15.6211 7.78516 15.293C7.79688 14.9648 7.81445 14.6543 7.83789 14.3613C7.61523 14.5957 7.4043 14.8066 7.20508 14.9941C7.00586 15.1816 6.82422 15.3691 6.66016 15.5566C6.27344 16.002 5.93359 16.3887 5.64062 16.7168C5.35938 17.0449 5.10742 17.3203 4.88477 17.543C4.67383 17.7656 4.48047 17.9297 4.30469 18.0352C4.14062 18.1406 3.98242 18.1934 3.83008 18.1934C3.74805 18.1934 3.6543 18.1758 3.54883 18.1406C3.34961 18.0586 3.20312 17.8652 3.10938 17.5605C3.01562 17.2441 2.96875 16.8574 2.96875 16.4004C2.96875 15.6621 3.0918 14.8242 3.33789 13.8867C3.4082 13.6406 3.49023 13.3242 3.58398 12.9375C3.68945 12.5391 3.79492 12.1113 3.90039 11.6543C4.01758 11.1855 4.12891 10.6934 4.23438 10.1777C4.33984 9.66211 4.43359 9.16406 4.51562 8.68359C4.60938 8.19141 4.67969 7.72852 4.72656 7.29492C4.78516 6.84961 4.81445 6.46875 4.81445 6.15234V5.95898C4.49805 5.99414 4.14062 6.09961 3.74219 6.27539C3.34375 6.43945 2.96875 6.63281 2.61719 6.85547C2.26562 7.07812 1.95508 7.3125 1.68555 7.55859C1.42773 7.80469 1.27539 8.02148 1.22852 8.20898L0.103516 7.55859C0.291016 7.28906 0.542969 6.99609 0.859375 6.67969C1.16406 6.36328 1.48633 6.07031 1.82617 5.80078C2.16602 5.51953 2.5 5.2793 2.82812 5.08008C3.15625 4.88086 3.4375 4.75781 3.67188 4.71094C3.78906 4.6875 3.87695 4.67578 3.93555 4.67578C4.18164 4.67578 4.45703 4.72266 4.76172 4.81641C5.07812 4.91016 5.37109 5.03906 5.64062 5.20312C5.91016 5.35547 6.13867 5.53711 6.32617 5.74805C6.51367 5.95898 6.60742 6.17578 6.60742 6.39844C6.60742 6.53906 6.56641 6.81445 6.48438 7.22461C6.40234 7.62305 6.29688 8.10938 6.16797 8.68359C6.05078 9.24609 5.91602 9.86133 5.76367 10.5293C5.61133 11.1973 5.46484 11.8652 5.32422 12.5332C5.19531 13.1895 5.07227 13.8164 4.95508 14.4141C4.84961 15 4.7793 15.498 4.74414 15.9082C5.01367 15.6035 5.32422 15.2402 5.67578 14.8184C6.02734 14.3965 6.36719 13.9688 6.69531 13.5352C7.02344 13.1016 7.31641 12.6914 7.57422 12.3047C7.84375 11.918 8.03125 11.6016 8.13672 11.3555C8.18359 10.9688 8.23633 10.5645 8.29492 10.1426C8.36523 9.70898 8.44727 9.29297 8.54102 8.89453C8.64648 8.49609 8.76953 8.13867 8.91016 7.82227C9.0625 7.49414 9.25 7.24219 9.47266 7.06641C9.64844 6.9375 9.85352 6.87305 10.0879 6.87305C10.252 6.87305 10.4102 6.90234 10.5625 6.96094C10.7266 7.01953 10.873 7.0957 11.002 7.18945C11.1309 7.2832 11.2305 7.38867 11.3008 7.50586C11.3828 7.61133 11.4238 7.71094 11.4238 7.80469C11.4238 7.88672 11.3652 8.08594 11.248 8.40234C11.1426 8.71875 10.9844 9.10547 10.7734 9.5625C10.5742 10.0195 10.334 10.5176 10.0527 11.0566C9.7832 11.584 9.49023 12.1113 9.17383 12.6387C9.16211 12.7559 9.15625 12.8789 9.15625 13.0078C9.15625 13.125 9.15625 13.248 9.15625 13.377C9.15625 13.7051 9.16211 14.0449 9.17383 14.3965C9.18555 14.7363 9.20312 15.0703 9.22656 15.3984C9.25 15.7148 9.28516 16.0137 9.33203 16.2949C9.39062 16.5762 9.45508 16.8164 9.52539 17.0156C9.73633 16.6875 9.97656 16.248 10.2461 15.6973C10.5273 15.1348 10.8203 14.5254 11.125 13.8691C11.4414 13.2012 11.7637 12.5156 12.0918 11.8125C12.4199 11.0977 12.7363 10.418 13.041 9.77344C13.3457 9.12891 13.627 8.54883 13.8848 8.0332C14.1543 7.50586 14.3887 7.10156 14.5879 6.82031C14.8574 6.46875 15.168 6.13477 15.5195 5.81836C15.8242 5.54883 16.1875 5.2793 16.6094 5.00977C17.043 4.74023 17.5352 4.53516 18.0859 4.39453L18.1211 5.50195ZM18.332 10.6348C18.5078 10.3301 18.6895 9.97852 18.877 9.58008C19.0645 9.18164 19.2344 8.77734 19.3867 8.36719C19.5508 7.95703 19.6855 7.56445 19.791 7.18945C19.8965 6.81445 19.9492 6.49805 19.9492 6.24023C19.9492 6.09961 19.9258 5.9707 19.8789 5.85352C19.7148 6.13477 19.5449 6.49219 19.3691 6.92578C19.2051 7.35937 19.0527 7.81055 18.9121 8.2793C18.7715 8.73633 18.6484 9.18164 18.543 9.61523C18.4375 10.0371 18.3672 10.377 18.332 10.6348ZM25.8203 16.1367C25.5039 16.6055 25.1699 16.9805 24.8184 17.2617C24.4785 17.543 24.1387 17.7656 23.7988 17.9297C23.4707 18.082 23.1484 18.1816 22.832 18.2285C22.5273 18.2871 22.252 18.3164 22.0059 18.3164C21.877 18.3164 21.7598 18.3105 21.6543 18.2988C21.5605 18.2988 21.4785 18.293 21.4082 18.2812C21.3262 18.2695 21.2559 18.252 21.1973 18.2285C20.834 18.1113 20.582 17.9062 20.4414 17.6133C20.3125 17.3203 20.248 16.9688 20.248 16.5586C20.248 16.1484 20.2949 15.7031 20.3887 15.2227C20.4941 14.7422 20.6055 14.2676 20.7227 13.7988C20.8516 13.3184 20.9688 12.8672 21.0742 12.4453C21.1797 12.0234 21.2324 11.666 21.2324 11.373C21.2324 11.2793 21.2207 11.1738 21.1973 11.0566C20.8574 11.1621 20.5117 11.3145 20.1602 11.5137C19.8203 11.7129 19.4922 11.9414 19.1758 12.1992C18.8711 12.4453 18.5898 12.7207 18.332 13.0254C18.0742 13.3184 17.875 13.6113 17.7344 13.9043C17.6289 14.1152 17.5586 14.2207 17.5234 14.2207C17.5234 14.2207 17.5176 14.209 17.5059 14.1855L16.6797 18.0879L15.1504 17.7012C15.209 17.4316 15.2969 17.0566 15.4141 16.5762C15.5312 16.0957 15.6602 15.5508 15.8008 14.9414C15.9531 14.3203 16.1172 13.6641 16.293 12.9727C16.4805 12.2695 16.668 11.5664 16.8555 10.8633C17.043 10.1602 17.2363 9.47461 17.4355 8.80664C17.6348 8.13867 17.8281 7.53516 18.0156 6.99609C18.2031 6.44531 18.3789 5.98242 18.543 5.60742C18.7188 5.2207 18.8711 4.96289 19 4.83398C19.1289 4.70508 19.2578 4.61719 19.3867 4.57031C19.5273 4.51172 19.6621 4.48242 19.791 4.48242C19.9785 4.48242 20.1543 4.54102 20.3184 4.6582C20.4941 4.76367 20.6465 4.9043 20.7754 5.08008C20.9043 5.25586 21.0039 5.45508 21.0742 5.67773C21.1562 5.88867 21.1973 6.09961 21.1973 6.31055C21.1973 6.42773 21.1621 6.60938 21.0918 6.85547C21.0215 7.10156 20.9219 7.39453 20.793 7.73438C20.6758 8.07422 20.5352 8.44922 20.3711 8.85938C20.207 9.26953 20.0312 9.70312 19.8438 10.1602C20.0781 9.98438 20.2891 9.85547 20.4766 9.77344C20.6758 9.69141 20.8809 9.63867 21.0918 9.61523H21.1445C21.2734 9.61523 21.4434 9.66797 21.6543 9.77344C21.877 9.86719 22.0879 9.98438 22.2871 10.125C22.498 10.2539 22.6738 10.3887 22.8145 10.5293C22.9668 10.6699 23.043 10.7812 23.043 10.8633V10.8984C23.0195 11.168 22.9316 11.543 22.7793 12.0234C22.627 12.4922 22.4629 12.9961 22.2871 13.5352C22.1113 14.0742 21.9531 14.6016 21.8125 15.1172C21.6719 15.6328 21.6016 16.0723 21.6016 16.4355C21.6016 16.7988 21.6895 17.0391 21.8652 17.1562C21.8887 17.168 21.9238 17.1797 21.9707 17.1914C22.0176 17.2031 22.1172 17.209 22.2695 17.209C22.4102 17.209 22.5801 17.1855 22.7793 17.1387C22.9902 17.0918 23.2188 16.9922 23.4648 16.8398C23.7227 16.6875 23.9922 16.4707 24.2734 16.1895C24.5664 15.8965 24.8711 15.5156 25.1875 15.0469L25.8203 16.1367ZM26.7168 23.3438C26.8574 23.1562 27.0039 22.9043 27.1562 22.5879C27.3086 22.2832 27.4609 21.9492 27.6133 21.5859C27.7773 21.2227 27.9297 20.8477 28.0703 20.4609C28.2109 20.0742 28.3457 19.7051 28.4746 19.3535C28.3691 19.4707 28.2285 19.6934 28.0527 20.0215C27.877 20.3496 27.6953 20.7129 27.5078 21.1113C27.332 21.5098 27.168 21.9082 27.0156 22.3066C26.8633 22.7168 26.7637 23.0625 26.7168 23.3438ZM26.8223 9.75586C26.9395 9.82617 27.1445 9.86133 27.4375 9.86133C27.6719 9.86133 27.8945 9.84961 28.1055 9.82617C28.3281 9.79102 28.457 9.76758 28.4922 9.75586C28.1055 10.6582 27.7598 11.5254 27.4551 12.3574C27.3262 12.709 27.1973 13.0781 27.0684 13.4648C26.9395 13.8398 26.8281 14.209 26.7344 14.5723C26.6406 14.9355 26.5645 15.2871 26.5059 15.627C26.4473 15.9551 26.418 16.248 26.418 16.5059V16.5938C26.6172 16.6523 26.8105 16.6816 26.998 16.6816C27.1973 16.6816 27.3965 16.6406 27.5957 16.5586C27.8066 16.4648 28.0117 16.3008 28.2109 16.0664C28.3164 15.9375 28.457 15.75 28.6328 15.5039C28.8086 15.2578 29.002 14.9766 29.2129 14.6602C29.4238 14.3438 29.6406 14.0039 29.8633 13.6406C30.0977 13.2656 30.3145 12.8965 30.5137 12.5332C30.6895 12.2402 30.8477 11.9297 30.9883 11.6016C31.1172 11.332 31.2402 11.0215 31.3574 10.6699C31.4746 10.3184 31.5566 9.9668 31.6035 9.61523L33.0449 9.82617C32.834 10.4707 32.6113 11.127 32.377 11.7949C32.1543 12.4629 31.9434 13.0781 31.7441 13.6406C31.5215 14.2852 31.2988 14.918 31.0762 15.5391C31.5332 15.3164 31.9844 15.0996 32.4297 14.8887C32.8047 14.7129 33.1973 14.543 33.6074 14.3789C34.0176 14.2031 34.375 14.0684 34.6797 13.9746L34.3984 15.3281C34.1406 15.4688 33.8301 15.627 33.4668 15.8027C33.1152 15.9668 32.752 16.1484 32.377 16.3477C32.002 16.5352 31.6387 16.7344 31.2871 16.9453C30.9473 17.1445 30.6543 17.3379 30.4082 17.5254C30.127 18.3457 29.8516 19.1484 29.582 19.9336C29.3242 20.7305 29.0781 21.4512 28.8438 22.0957C28.6211 22.7402 28.4219 23.291 28.2461 23.748C28.082 24.2051 27.959 24.5098 27.877 24.6621C27.7246 24.9668 27.5078 25.1836 27.2266 25.3125C26.957 25.4414 26.6758 25.5059 26.3828 25.5059C26.0312 25.5059 25.7207 25.4238 25.4512 25.2598C25.1816 25.0957 25.0469 24.8672 25.0469 24.5742C25.0469 24.5391 25.0527 24.5156 25.0645 24.5039C25.0879 24.2461 25.1582 23.918 25.2754 23.5195C25.4043 23.1328 25.5742 22.7051 25.7852 22.2363C25.9961 21.7676 26.2363 21.2754 26.5059 20.7598C26.7871 20.2441 27.0918 19.7402 27.4199 19.248C27.748 18.7559 28.0879 18.293 28.4395 17.8594C28.8027 17.4258 29.166 17.0449 29.5293 16.7168C29.5645 16.6816 29.5996 16.6523 29.6348 16.6289C29.6699 16.5938 29.7051 16.5586 29.7402 16.5234L30.2852 14.959C30.0977 15.3105 29.8984 15.6328 29.6875 15.9258C29.4883 16.207 29.2891 16.4648 29.0898 16.6992C28.9023 16.9336 28.7207 17.1445 28.5449 17.332C28.3809 17.5078 28.2461 17.6543 28.1406 17.7715C28.0469 17.8535 27.8945 17.918 27.6836 17.9648C27.4727 18 27.2266 18.0176 26.9453 18.0176C26.6875 18.0176 26.4238 18 26.1543 17.9648C25.8848 17.918 25.6328 17.8535 25.3984 17.7715C25.1758 17.6777 24.9941 17.5605 24.8535 17.4199C24.7129 17.2676 24.6426 17.0918 24.6426 16.8926C24.6426 16.7051 24.6895 16.4355 24.7832 16.084C24.877 15.7207 24.9941 15.3223 25.1348 14.8887C25.2754 14.4434 25.4277 13.9746 25.5918 13.4824C25.7676 12.9902 25.9316 12.5098 26.084 12.041C26.248 11.5723 26.3945 11.1387 26.5234 10.7402C26.6523 10.3418 26.752 10.0137 26.8223 9.75586ZM47.248 8.05078C47.248 7.80469 47.2246 7.59375 47.1777 7.41797C47.1426 7.23047 47.1016 7.07812 47.0547 6.96094C47.0078 6.83203 46.9492 6.71484 46.8789 6.60938C46.7266 6.43359 46.4863 6.3457 46.1582 6.3457C45.877 6.3457 45.5547 6.42188 45.1914 6.57422C44.8398 6.72656 44.4941 6.98438 44.1543 7.34766C43.9785 7.53516 43.7852 7.83984 43.5742 8.26172C43.3633 8.68359 43.1523 9.16406 42.9414 9.70312C42.7305 10.2422 42.5254 10.8047 42.3262 11.3906C42.127 11.9766 41.9512 12.5332 41.7988 13.0605C41.6465 13.5762 41.5234 14.0332 41.4297 14.4316C41.3359 14.8301 41.2891 15.1055 41.2891 15.2578C41.2891 15.457 41.3535 15.668 41.4824 15.8906C41.623 16.1133 41.793 16.3242 41.9922 16.5234C42.2031 16.7109 42.4258 16.8691 42.6602 16.998C42.9062 17.1152 43.1348 17.1738 43.3457 17.1738C43.4512 17.1738 43.5508 17.1562 43.6445 17.1211C43.8672 17.0391 44.1367 16.8984 44.4531 16.6992C44.7695 16.4883 45.0918 16.2598 45.4199 16.0137C45.7598 15.7676 46.0762 15.5215 46.3691 15.2754C46.6738 15.0176 46.9141 14.7891 47.0898 14.5898L47.8809 15.5215C47.7871 15.6621 47.6875 15.8203 47.582 15.9961C47.4531 16.1953 47.3066 16.3945 47.1426 16.5938C46.9785 16.8047 46.7676 17.0156 46.5098 17.2266C46.252 17.4375 45.9355 17.6426 45.5605 17.8418C45.0801 18.0762 44.5996 18.2402 44.1191 18.334C43.6387 18.4277 43.2051 18.4746 42.8184 18.4746C42.6191 18.4746 42.4316 18.4629 42.2559 18.4395C42.0918 18.4277 41.9512 18.3984 41.834 18.3516C41.5176 18.2695 41.248 18.0703 41.0254 17.7539C40.8027 17.4258 40.6211 17.0391 40.4805 16.5938C40.3398 16.1484 40.2402 15.6738 40.1816 15.1699C40.123 14.6543 40.0938 14.168 40.0938 13.7109C40.0938 13.3477 40.1875 12.8848 40.375 12.3223C40.5742 11.7598 40.8145 11.168 41.0957 10.5469C41.377 9.91406 41.6641 9.31055 41.957 8.73633C42.2617 8.15039 42.5137 7.65234 42.7129 7.24219C42.9004 6.85547 43.1875 6.50391 43.5742 6.1875C43.9727 5.85938 44.3887 5.58398 44.8223 5.36133C45.2676 5.12695 45.6895 4.94531 46.0879 4.81641C46.498 4.6875 46.8145 4.62305 47.0371 4.62305H47.1777C47.3652 4.6582 47.5645 4.81055 47.7754 5.08008C47.9863 5.34961 48.1797 5.67187 48.3555 6.04688C48.5312 6.41016 48.6719 6.79687 48.7773 7.20703C48.8945 7.60547 48.9531 7.94531 48.9531 8.22656L47.248 8.05078ZM51.8711 10.6348C52.0469 10.3301 52.2285 9.97852 52.416 9.58008C52.6035 9.18164 52.7734 8.77734 52.9258 8.36719C53.0898 7.95703 53.2246 7.56445 53.3301 7.18945C53.4355 6.81445 53.4883 6.49805 53.4883 6.24023C53.4883 6.09961 53.4648 5.9707 53.418 5.85352C53.2539 6.13477 53.084 6.49219 52.9082 6.92578C52.7441 7.35937 52.5918 7.81055 52.4512 8.2793C52.3105 8.73633 52.1875 9.18164 52.082 9.61523C51.9766 10.0371 51.9062 10.377 51.8711 10.6348ZM59.3594 16.1367C59.043 16.6055 58.709 16.9805 58.3574 17.2617C58.0176 17.543 57.6777 17.7656 57.3379 17.9297C57.0098 18.082 56.6875 18.1816 56.3711 18.2285C56.0664 18.2871 55.791 18.3164 55.5449 18.3164C55.416 18.3164 55.2988 18.3105 55.1934 18.2988C55.0996 18.2988 55.0176 18.293 54.9473 18.2812C54.8652 18.2695 54.7949 18.252 54.7363 18.2285C54.373 18.1113 54.1211 17.9062 53.9805 17.6133C53.8516 17.3203 53.7871 16.9688 53.7871 16.5586C53.7871 16.1484 53.834 15.7031 53.9277 15.2227C54.0332 14.7422 54.1445 14.2676 54.2617 13.7988C54.3906 13.3184 54.5078 12.8672 54.6133 12.4453C54.7188 12.0234 54.7715 11.666 54.7715 11.373C54.7715 11.2793 54.7598 11.1738 54.7363 11.0566C54.3965 11.1621 54.0508 11.3145 53.6992 11.5137C53.3594 11.7129 53.0312 11.9414 52.7148 12.1992C52.4102 12.4453 52.1289 12.7207 51.8711 13.0254C51.6133 13.3184 51.4141 13.6113 51.2734 13.9043C51.168 14.1152 51.0977 14.2207 51.0625 14.2207C51.0625 14.2207 51.0566 14.209 51.0449 14.1855L50.2188 18.0879L48.6895 17.7012C48.748 17.4316 48.8359 17.0566 48.9531 16.5762C49.0703 16.0957 49.1992 15.5508 49.3398 14.9414C49.4922 14.3203 49.6562 13.6641 49.832 12.9727C50.0195 12.2695 50.207 11.5664 50.3945 10.8633C50.582 10.1602 50.7754 9.47461 50.9746 8.80664C51.1738 8.13867 51.3672 7.53516 51.5547 6.99609C51.7422 6.44531 51.918 5.98242 52.082 5.60742C52.2578 5.2207 52.4102 4.96289 52.5391 4.83398C52.668 4.70508 52.7969 4.61719 52.9258 4.57031C53.0664 4.51172 53.2012 4.48242 53.3301 4.48242C53.5176 4.48242 53.6934 4.54102 53.8574 4.6582C54.0332 4.76367 54.1855 4.9043 54.3145 5.08008C54.4434 5.25586 54.543 5.45508 54.6133 5.67773C54.6953 5.88867 54.7363 6.09961 54.7363 6.31055C54.7363 6.42773 54.7012 6.60938 54.6309 6.85547C54.5605 7.10156 54.4609 7.39453 54.332 7.73438C54.2148 8.07422 54.0742 8.44922 53.9102 8.85938C53.7461 9.26953 53.5703 9.70312 53.3828 10.1602C53.6172 9.98438 53.8281 9.85547 54.0156 9.77344C54.2148 9.69141 54.4199 9.63867 54.6309 9.61523H54.6836C54.8125 9.61523 54.9824 9.66797 55.1934 9.77344C55.416 9.86719 55.627 9.98438 55.8262 10.125C56.0371 10.2539 56.2129 10.3887 56.3535 10.5293C56.5059 10.6699 56.582 10.7812 56.582 10.8633V10.8984C56.5586 11.168 56.4707 11.543 56.3184 12.0234C56.166 12.4922 56.002 12.9961 55.8262 13.5352C55.6504 14.0742 55.4922 14.6016 55.3516 15.1172C55.2109 15.6328 55.1406 16.0723 55.1406 16.4355C55.1406 16.7988 55.2285 17.0391 55.4043 17.1562C55.4277 17.168 55.4629 17.1797 55.5098 17.1914C55.5566 17.2031 55.6562 17.209 55.8086 17.209C55.9492 17.209 56.1191 17.1855 56.3184 17.1387C56.5293 17.0918 56.7578 16.9922 57.0039 16.8398C57.2617 16.6875 57.5312 16.4707 57.8125 16.1895C58.1055 15.8965 58.4102 15.5156 58.7266 15.0469L59.3594 16.1367ZM61.0293 17.4551C61.0762 17.4668 61.1465 17.4727 61.2402 17.4727C61.5918 17.4727 61.9082 17.3789 62.1895 17.1914C62.4707 17.0039 62.7168 16.7695 62.9277 16.4883C63.1387 16.207 63.3145 15.9082 63.4551 15.5918C63.6074 15.2637 63.7188 14.9648 63.7891 14.6953C63.8477 14.543 63.9121 14.3027 63.9824 13.9746C64.0527 13.6348 64.1172 13.2715 64.1758 12.8848C63.9766 12.8145 63.7715 12.6973 63.5605 12.5332C63.3613 12.3574 63.1738 12.1582 62.998 11.9355C62.8223 11.7129 62.6758 11.4727 62.5586 11.2148C62.4531 10.957 62.4004 10.7109 62.4004 10.4766C62.4004 10.3945 62.4062 10.3301 62.418 10.2832C62.1484 10.4473 61.8906 10.6406 61.6445 10.8633C61.4102 11.0859 61.1934 11.3262 60.9941 11.584C60.7949 11.8301 60.625 12.0938 60.4844 12.375C60.3438 12.6445 60.2441 12.9082 60.1855 13.166C60.1152 13.4355 60.0508 13.7637 59.9922 14.1504C59.9336 14.5254 59.9043 14.9121 59.9043 15.3105C59.9043 15.5801 59.9219 15.8379 59.957 16.084C59.9922 16.3301 60.0508 16.5527 60.1328 16.752C60.2266 16.9395 60.3438 17.0977 60.4844 17.2266C60.6367 17.3555 60.8184 17.4316 61.0293 17.4551ZM64 10.3359C63.8711 10.3359 63.7773 10.377 63.7188 10.459C63.6602 10.541 63.6309 10.6406 63.6309 10.7578C63.6309 10.957 63.6953 11.1621 63.8242 11.373C63.9531 11.5723 64.123 11.7129 64.334 11.7949C64.3457 11.6895 64.3516 11.5898 64.3516 11.4961C64.3516 11.4023 64.3516 11.3086 64.3516 11.2148C64.3516 10.9453 64.3281 10.7344 64.2812 10.582C64.2344 10.418 64.1465 10.3359 64.0176 10.3359H64ZM69.6426 12.1113C69.0801 12.5684 68.5352 12.9023 68.0078 13.1133C67.4805 13.3242 67.0176 13.4297 66.6191 13.4297C66.3145 13.4297 65.9688 13.3652 65.582 13.2363C65.4531 13.7871 65.2949 14.3438 65.1074 14.9062C64.9316 15.4688 64.7324 15.9902 64.5098 16.4707C64.2988 16.9395 64.0703 17.3379 63.8242 17.666C63.5898 17.9941 63.3496 18.1992 63.1035 18.2812C62.834 18.3867 62.541 18.4629 62.2246 18.5098C61.9082 18.5566 61.5918 18.5801 61.2754 18.5801C60.748 18.5801 60.25 18.5039 59.7812 18.3516C59.3242 18.1992 59.0137 17.9531 58.8496 17.6133C58.7559 17.4141 58.6797 17.127 58.6211 16.752C58.5625 16.377 58.5332 15.9668 58.5332 15.5215C58.5332 15.1699 58.5508 14.8066 58.5859 14.4316C58.6211 14.0449 58.668 13.6758 58.7266 13.3242C58.7969 12.9727 58.8789 12.6504 58.9727 12.3574C59.0781 12.0527 59.1953 11.8008 59.3242 11.6016C59.5234 11.2734 59.7754 10.9453 60.0801 10.6172C60.3848 10.2773 60.7129 9.97266 61.0645 9.70312C61.4277 9.43359 61.8027 9.21094 62.1895 9.03516C62.5762 8.85938 62.957 8.77148 63.332 8.77148H63.3848L63.4375 9.28125C63.625 9.21094 63.8242 9.17578 64.0352 9.17578C64.4688 9.17578 64.8496 9.31641 65.1777 9.59766C65.5176 9.86719 65.752 10.2129 65.8809 10.6348C65.9043 10.7285 65.916 10.8867 65.916 11.1094C65.916 11.2734 65.9102 11.4434 65.8984 11.6191C65.8984 11.7949 65.8926 11.9297 65.8809 12.0234C65.9395 12.0469 66.0039 12.0645 66.0742 12.0762C66.1914 12.1113 66.373 12.1289 66.6191 12.1289C66.7715 12.1289 66.959 12.1172 67.1816 12.0938C67.416 12.0586 67.6621 12.0059 67.9199 11.9355C68.1895 11.8535 68.4648 11.748 68.7461 11.6191C69.0273 11.4785 69.2969 11.2969 69.5547 11.0742L69.6426 12.1113ZM70.3281 17.4551C70.375 17.4668 70.4453 17.4727 70.5391 17.4727C70.8906 17.4727 71.207 17.3789 71.4883 17.1914C71.7695 17.0039 72.0156 16.7695 72.2266 16.4883C72.4375 16.207 72.6133 15.9082 72.7539 15.5918C72.9062 15.2637 73.0176 14.9648 73.0879 14.6953C73.1465 14.543 73.2109 14.3027 73.2812 13.9746C73.3516 13.6348 73.416 13.2715 73.4746 12.8848C73.2754 12.8145 73.0703 12.6973 72.8594 12.5332C72.6602 12.3574 72.4727 12.1582 72.2969 11.9355C72.1211 11.7129 71.9746 11.4727 71.8574 11.2148C71.752 10.957 71.6992 10.7109 71.6992 10.4766C71.6992 10.3945 71.7051 10.3301 71.7168 10.2832C71.4473 10.4473 71.1895 10.6406 70.9434 10.8633C70.709 11.0859 70.4922 11.3262 70.293 11.584C70.0938 11.8301 69.9238 12.0938 69.7832 12.375C69.6426 12.6445 69.543 12.9082 69.4844 13.166C69.4141 13.4355 69.3496 13.7637 69.291 14.1504C69.2324 14.5254 69.2031 14.9121 69.2031 15.3105C69.2031 15.5801 69.2207 15.8379 69.2559 16.084C69.291 16.3301 69.3496 16.5527 69.4316 16.752C69.5254 16.9395 69.6426 17.0977 69.7832 17.2266C69.9355 17.3555 70.1172 17.4316 70.3281 17.4551ZM73.2988 10.3359C73.1699 10.3359 73.0762 10.377 73.0176 10.459C72.959 10.541 72.9297 10.6406 72.9297 10.7578C72.9297 10.957 72.9941 11.1621 73.123 11.373C73.252 11.5723 73.4219 11.7129 73.6328 11.7949C73.6445 11.6895 73.6504 11.5898 73.6504 11.4961C73.6504 11.4023 73.6504 11.3086 73.6504 11.2148C73.6504 10.9453 73.627 10.7344 73.5801 10.582C73.5332 10.418 73.4453 10.3359 73.3164 10.3359H73.2988ZM78.9414 12.1113C78.3789 12.5684 77.834 12.9023 77.3066 13.1133C76.7793 13.3242 76.3164 13.4297 75.918 13.4297C75.6133 13.4297 75.2676 13.3652 74.8809 13.2363C74.752 13.7871 74.5938 14.3438 74.4062 14.9062C74.2305 15.4688 74.0312 15.9902 73.8086 16.4707C73.5977 16.9395 73.3691 17.3379 73.123 17.666C72.8887 17.9941 72.6484 18.1992 72.4023 18.2812C72.1328 18.3867 71.8398 18.4629 71.5234 18.5098C71.207 18.5566 70.8906 18.5801 70.5742 18.5801C70.0469 18.5801 69.5488 18.5039 69.0801 18.3516C68.623 18.1992 68.3125 17.9531 68.1484 17.6133C68.0547 17.4141 67.9785 17.127 67.9199 16.752C67.8613 16.377 67.832 15.9668 67.832 15.5215C67.832 15.1699 67.8496 14.8066 67.8848 14.4316C67.9199 14.0449 67.9668 13.6758 68.0254 13.3242C68.0957 12.9727 68.1777 12.6504 68.2715 12.3574C68.377 12.0527 68.4941 11.8008 68.623 11.6016C68.8223 11.2734 69.0742 10.9453 69.3789 10.6172C69.6836 10.2773 70.0117 9.97266 70.3633 9.70312C70.7266 9.43359 71.1016 9.21094 71.4883 9.03516C71.875 8.85938 72.2559 8.77148 72.6309 8.77148H72.6836L72.7363 9.28125C72.9238 9.21094 73.123 9.17578 73.334 9.17578C73.7676 9.17578 74.1484 9.31641 74.4766 9.59766C74.8164 9.86719 75.0508 10.2129 75.1797 10.6348C75.2031 10.7285 75.2148 10.8867 75.2148 11.1094C75.2148 11.2734 75.209 11.4434 75.1973 11.6191C75.1973 11.7949 75.1914 11.9297 75.1797 12.0234C75.2383 12.0469 75.3027 12.0645 75.373 12.0762C75.4902 12.1113 75.6719 12.1289 75.918 12.1289C76.0703 12.1289 76.2578 12.1172 76.4805 12.0938C76.7148 12.0586 76.9609 12.0059 77.2188 11.9355C77.4883 11.8535 77.7637 11.748 78.0449 11.6191C78.3262 11.4785 78.5957 11.2969 78.8535 11.0742L78.9414 12.1113ZM80.0137 17.1562C80.1426 17.1562 80.2773 17.1387 80.418 17.1035C80.4414 17.0918 80.4648 17.0801 80.4883 17.0684C80.5234 17.0566 80.5586 17.0449 80.5938 17.0332C80.7227 16.9746 80.834 16.8691 80.9277 16.7168C81.0332 16.5527 81.1152 16.3711 81.1738 16.1719C81.2441 15.9727 81.291 15.7617 81.3145 15.5391C81.3496 15.3164 81.3672 15.1055 81.3672 14.9062C81.3672 14.6836 81.3438 14.4844 81.2969 14.3086C81.2617 14.1211 81.2031 13.9512 81.1211 13.7988C81.0508 13.6348 80.9688 13.4824 80.875 13.3418C80.793 13.1895 80.7109 13.0371 80.6289 12.8848C80.5234 12.6973 80.4473 12.5039 80.4004 12.3047C80.3535 12.1055 80.3184 11.9062 80.2949 11.707L77.6758 15.4512C77.8633 15.5332 78.0391 15.6621 78.2031 15.8379C78.3672 16.002 78.5312 16.1777 78.6953 16.3652C78.8711 16.541 79.0527 16.7051 79.2402 16.8574C79.4277 17.0098 79.6387 17.1094 79.873 17.1562H80.0137ZM85.6387 16.207C85.5684 16.2422 85.3926 16.3359 85.1113 16.4883C84.8301 16.6289 84.4902 16.7988 84.0918 16.998C83.7051 17.1855 83.2832 17.3906 82.8262 17.6133C82.3691 17.8242 81.9297 18.0176 81.5078 18.1934C81.0859 18.3809 80.7051 18.5332 80.3652 18.6504C80.0254 18.7676 79.7793 18.8262 79.627 18.8262H79.5742C79.3633 18.8027 79.1289 18.7148 78.8711 18.5625C78.625 18.4219 78.3789 18.2402 78.1328 18.0176C77.8984 17.8066 77.6699 17.5723 77.4473 17.3145C77.2363 17.0449 77.0605 16.7871 76.9199 16.541L75.7598 18.4746L74.8809 17.666C75.0215 17.502 75.2266 17.2324 75.4961 16.8574C75.7539 16.4824 76.0469 16.0547 76.375 15.5742C76.6914 15.082 77.0254 14.5664 77.377 14.0273C77.7285 13.4766 78.0684 12.9434 78.3965 12.4277C78.7363 11.9121 79.041 11.4375 79.3105 11.0039C79.5918 10.5703 79.8145 10.2246 79.9785 9.9668C80.0488 9.54492 80.1602 9.1582 80.3125 8.80664C80.4766 8.44336 80.6699 8.22656 80.8926 8.15625H80.9805C81.0508 8.15625 81.127 8.19141 81.209 8.26172C81.3027 8.33203 81.3848 8.42578 81.4551 8.54297C81.5371 8.64844 81.6016 8.76562 81.6484 8.89453C81.707 9.01172 81.7363 9.12305 81.7363 9.22852C81.7363 9.28711 81.7305 9.33984 81.7188 9.38672C81.6484 9.5625 81.5664 9.7793 81.4727 10.0371C81.3789 10.2832 81.3027 10.5293 81.2441 10.7754C81.2207 10.8457 81.209 10.9102 81.209 10.9688C81.209 11.1445 81.2559 11.3262 81.3496 11.5137C81.4434 11.6895 81.5488 11.8652 81.666 12.041C81.7949 12.2051 81.918 12.3633 82.0352 12.5156C82.1641 12.6562 82.2578 12.7793 82.3164 12.8848C82.5039 13.2012 82.6387 13.5352 82.7207 13.8867C82.8027 14.2266 82.8438 14.5547 82.8438 14.8711C82.8438 15.0703 82.8262 15.2578 82.791 15.4336C82.7676 15.6094 82.7266 15.7676 82.668 15.9082C82.668 15.9199 82.6445 15.9668 82.5977 16.0488C82.5625 16.1309 82.5215 16.2246 82.4746 16.3301C82.4277 16.4238 82.3809 16.5117 82.334 16.5938C82.2988 16.6758 82.2812 16.7227 82.2812 16.7344C82.6797 16.5234 83.0605 16.3242 83.4238 16.1367C83.7285 15.9727 84.0273 15.8086 84.3203 15.6445C84.625 15.4805 84.8477 15.3516 84.9883 15.2578L85.6387 16.207ZM88.75 10.7402C88.6562 10.7402 88.5273 10.8105 88.3633 10.9512C88.2109 11.0918 88.041 11.2793 87.8535 11.5137C87.6777 11.7363 87.4902 12 87.291 12.3047C87.0918 12.6094 86.916 12.9258 86.7637 13.2539C86.7051 13.3711 86.6523 13.4883 86.6055 13.6055C86.5586 13.7227 86.5117 13.8457 86.4648 13.9746C86.7695 13.916 87.0859 13.8457 87.4141 13.7637C87.7539 13.6699 88.0059 13.5703 88.1699 13.4648C88.252 13.4062 88.3398 13.2891 88.4336 13.1133C88.5391 12.9375 88.6328 12.7441 88.7148 12.5332C88.8086 12.3105 88.8848 12.082 88.9434 11.8477C89.002 11.6016 89.0312 11.3906 89.0312 11.2148C89.0312 11.0859 89.0078 10.9746 88.9609 10.8809C88.9141 10.7871 88.8438 10.7402 88.75 10.7402ZM92.6523 15.75C92.4414 15.9023 92.1953 16.0781 91.9141 16.2773C91.6328 16.4648 91.334 16.6641 91.0176 16.875C90.7129 17.0742 90.4023 17.2734 90.0859 17.4727C89.7812 17.6719 89.4941 17.8477 89.2246 18C88.9668 18.1641 88.7441 18.293 88.5566 18.3867C88.3691 18.4922 88.2461 18.5508 88.1875 18.5625C88.1523 18.5742 88.1055 18.5801 88.0469 18.5801C87.8477 18.5801 87.584 18.5273 87.2559 18.4219C86.9395 18.3281 86.6172 18.2051 86.2891 18.0527C85.9609 17.9121 85.6562 17.7598 85.375 17.5957C85.1055 17.4199 84.9238 17.2559 84.8301 17.1035C84.7598 16.9746 84.707 16.8105 84.6719 16.6113C84.6484 16.4004 84.6367 16.1602 84.6367 15.8906C84.6367 15.6562 84.6484 15.4102 84.6719 15.1523C84.6953 14.8828 84.7246 14.6309 84.7598 14.3965C84.8066 14.1504 84.8535 13.9277 84.9004 13.7285C84.959 13.5293 85.0234 13.3711 85.0938 13.2539C85.1758 13.0898 85.3047 12.8848 85.4805 12.6387C85.6562 12.3809 85.8555 12.1172 86.0781 11.8477C86.3125 11.5664 86.5586 11.2852 86.8164 11.0039C87.0742 10.7227 87.332 10.4707 87.5898 10.248C87.8477 10.0137 88.0938 9.82617 88.3281 9.68555C88.5742 9.5332 88.791 9.45117 88.9785 9.43945C88.9902 9.43945 88.9961 9.43945 88.9961 9.43945C89.0078 9.42773 89.0254 9.42188 89.0488 9.42188C89.2363 9.42188 89.4238 9.50391 89.6113 9.66797C89.7988 9.83203 89.9629 10.0312 90.1035 10.2656C90.2441 10.5 90.3555 10.752 90.4375 11.0215C90.5312 11.2793 90.5781 11.5137 90.5781 11.7246C90.5781 11.8301 90.5723 11.9062 90.5605 11.9531C90.5137 12.1406 90.4082 12.375 90.2441 12.6562C90.0801 12.9258 89.8984 13.1953 89.6992 13.4648C89.5 13.7227 89.3066 13.957 89.1191 14.168C88.9316 14.3672 88.791 14.502 88.6973 14.5723C88.627 14.6309 88.498 14.6895 88.3105 14.748C88.1348 14.7949 87.9238 14.8477 87.6777 14.9062C87.4434 14.9531 87.1914 15 86.9219 15.0469C86.6523 15.0938 86.3887 15.1348 86.1309 15.1699C86.084 15.4043 86.0488 15.6094 86.0254 15.7852C86.002 15.9492 85.9844 16.0664 85.9727 16.1367C85.9961 16.2656 86.0664 16.3945 86.1836 16.5234C86.3008 16.6523 86.4473 16.7695 86.623 16.875C86.7988 16.9805 86.9922 17.0684 87.2031 17.1387C87.4258 17.1973 87.6484 17.2266 87.8711 17.2266C87.918 17.2266 87.9648 17.2266 88.0117 17.2266C88.0703 17.2266 88.123 17.2207 88.1699 17.209C88.3809 17.1504 88.6621 17.0156 89.0137 16.8047C89.3652 16.5938 89.7285 16.3535 90.1035 16.084C90.4902 15.8145 90.8535 15.5391 91.1934 15.2578C91.5449 14.9648 91.8145 14.707 92.002 14.4844L92.6523 15.75ZM104.887 10.4238C104.664 10.5879 104.529 10.7695 104.482 10.9688C104.447 11.168 104.389 11.3965 104.307 11.6543C104.4 11.5254 104.512 11.3555 104.641 11.1445C104.781 10.9336 104.863 10.6934 104.887 10.4238ZM107.576 16.2422C106.58 17.2734 105.637 17.9004 104.746 18.123C104.43 18.2051 104.137 18.2461 103.867 18.2461C103.398 18.2461 103.07 18.1289 102.883 17.8945C102.695 17.6484 102.596 17.3555 102.584 17.0156V16.8047C102.584 16.6758 102.584 16.5234 102.584 16.3477C102.584 16.1602 102.59 15.9492 102.602 15.7148C102.098 16.3477 101.617 16.8867 101.16 17.332C100.703 17.7656 100.34 18.0117 100.07 18.0703C99.9062 18.0938 99.748 18.1113 99.5957 18.123C99.4434 18.1465 99.2852 18.1582 99.1211 18.1582C98.875 18.1582 98.6406 18.1348 98.418 18.0879C98.207 18.0527 98.0195 17.9883 97.8555 17.8945C97.6914 17.7891 97.5625 17.6602 97.4688 17.5078C97.375 17.3555 97.3281 17.1621 97.3281 16.9277V16.8574C97.3281 16.7988 97.3457 16.6465 97.3809 16.4004C97.4043 16.1426 97.4746 15.7441 97.5918 15.2051C97.7207 14.666 97.9141 13.9512 98.1719 13.0605C98.4297 12.1699 98.7871 11.0508 99.2441 9.70312L100.896 9.79102C100.486 10.7285 100.152 11.5664 99.8945 12.3047C99.6484 13.0312 99.4551 13.6699 99.3145 14.2207C99.1855 14.7598 99.0977 15.2168 99.0508 15.5918C99.0039 15.9668 98.9805 16.2715 98.9805 16.5059C98.9805 16.6348 98.9805 16.7402 98.9805 16.8223C98.9922 16.8926 99.0039 16.957 99.0156 17.0156C99.0273 17.0742 99.0391 17.1211 99.0508 17.1562C99.3203 17.0156 99.6191 16.8223 99.9473 16.5762C100.275 16.3184 100.604 16.0312 100.932 15.7148C101.26 15.3984 101.582 15.0645 101.898 14.7129C102.215 14.3496 102.502 13.9922 102.76 13.6406C102.795 13.2422 102.842 12.8496 102.9 12.4629C102.959 12.0762 103.029 11.7188 103.111 11.3906C103.193 11.0625 103.281 10.7695 103.375 10.5117C103.469 10.2539 103.58 10.0605 103.709 9.93164C103.92 9.73242 104.172 9.63281 104.465 9.63281C104.641 9.63281 104.811 9.66797 104.975 9.73828C105.139 9.79688 105.285 9.87891 105.414 9.98438C105.543 10.0781 105.648 10.1895 105.73 10.3184C105.812 10.4473 105.854 10.5762 105.854 10.7051V10.7578C105.842 10.8398 105.789 10.9805 105.695 11.1797C105.602 11.3672 105.467 11.6016 105.291 11.8828C105.127 12.1641 104.934 12.4746 104.711 12.8145C104.5 13.1426 104.266 13.4883 104.008 13.8516C103.949 14.1562 103.902 14.4668 103.867 14.7832C103.832 15.0879 103.814 15.3926 103.814 15.6973C103.814 16.0371 103.844 16.3535 103.902 16.6465C103.961 16.9277 104.055 17.168 104.184 17.3672C104.477 17.2383 104.799 17.0449 105.15 16.7871C105.502 16.5176 105.836 16.248 106.152 15.9785C106.48 15.6973 106.768 15.4453 107.014 15.2227C107.26 14.9883 107.418 14.8418 107.488 14.7832L107.576 16.2422ZM110.002 17.1562C110.131 17.1562 110.266 17.1387 110.406 17.1035C110.43 17.0918 110.453 17.0801 110.477 17.0684C110.512 17.0566 110.547 17.0449 110.582 17.0332C110.711 16.9746 110.822 16.8691 110.916 16.7168C111.021 16.5527 111.104 16.3711 111.162 16.1719C111.232 15.9727 111.279 15.7617 111.303 15.5391C111.338 15.3164 111.355 15.1055 111.355 14.9062C111.355 14.6836 111.332 14.4844 111.285 14.3086C111.25 14.1211 111.191 13.9512 111.109 13.7988C111.039 13.6348 110.957 13.4824 110.863 13.3418C110.781 13.1895 110.699 13.0371 110.617 12.8848C110.512 12.6973 110.436 12.5039 110.389 12.3047C110.342 12.1055 110.307 11.9062 110.283 11.707L107.664 15.4512C107.852 15.5332 108.027 15.6621 108.191 15.8379C108.355 16.002 108.52 16.1777 108.684 16.3652C108.859 16.541 109.041 16.7051 109.229 16.8574C109.416 17.0098 109.627 17.1094 109.861 17.1562H110.002ZM115.627 16.207C115.557 16.2422 115.381 16.3359 115.1 16.4883C114.818 16.6289 114.479 16.7988 114.08 16.998C113.693 17.1855 113.271 17.3906 112.814 17.6133C112.357 17.8242 111.918 18.0176 111.496 18.1934C111.074 18.3809 110.693 18.5332 110.354 18.6504C110.014 18.7676 109.768 18.8262 109.615 18.8262H109.562C109.352 18.8027 109.117 18.7148 108.859 18.5625C108.613 18.4219 108.367 18.2402 108.121 18.0176C107.887 17.8066 107.658 17.5723 107.436 17.3145C107.225 17.0449 107.049 16.7871 106.908 16.541L105.748 18.4746L104.869 17.666C105.01 17.502 105.215 17.2324 105.484 16.8574C105.742 16.4824 106.035 16.0547 106.363 15.5742C106.68 15.082 107.014 14.5664 107.365 14.0273C107.717 13.4766 108.057 12.9434 108.385 12.4277C108.725 11.9121 109.029 11.4375 109.299 11.0039C109.58 10.5703 109.803 10.2246 109.967 9.9668C110.037 9.54492 110.148 9.1582 110.301 8.80664C110.465 8.44336 110.658 8.22656 110.881 8.15625H110.969C111.039 8.15625 111.115 8.19141 111.197 8.26172C111.291 8.33203 111.373 8.42578 111.443 8.54297C111.525 8.64844 111.59 8.76562 111.637 8.89453C111.695 9.01172 111.725 9.12305 111.725 9.22852C111.725 9.28711 111.719 9.33984 111.707 9.38672C111.637 9.5625 111.555 9.7793 111.461 10.0371C111.367 10.2832 111.291 10.5293 111.232 10.7754C111.209 10.8457 111.197 10.9102 111.197 10.9688C111.197 11.1445 111.244 11.3262 111.338 11.5137C111.432 11.6895 111.537 11.8652 111.654 12.041C111.783 12.2051 111.906 12.3633 112.023 12.5156C112.152 12.6562 112.246 12.7793 112.305 12.8848C112.492 13.2012 112.627 13.5352 112.709 13.8867C112.791 14.2266 112.832 14.5547 112.832 14.8711C112.832 15.0703 112.814 15.2578 112.779 15.4336C112.756 15.6094 112.715 15.7676 112.656 15.9082C112.656 15.9199 112.633 15.9668 112.586 16.0488C112.551 16.1309 112.51 16.2246 112.463 16.3301C112.416 16.4238 112.369 16.5117 112.322 16.5938C112.287 16.6758 112.27 16.7227 112.27 16.7344C112.668 16.5234 113.049 16.3242 113.412 16.1367C113.717 15.9727 114.016 15.8086 114.309 15.6445C114.613 15.4805 114.836 15.3516 114.977 15.2578L115.627 16.207Z" fill="#195A00"/>
<line x1="127" y1="17.5" x2="161" y2="17.5" stroke="#195A00"/>
</svg>
